<?xml version="1.0" encoding="UTF-8" standalone="no"?>
<!DOCTYPE svg PUBLIC "-//W3C//DTD SVG 1.1//EN" "http://www.w3.org/Graphics/SVG/1.1/DTD/svg11.dtd">
<svg width="100%" height="100%" viewBox="0 0 512 512" version="1.1" xmlns="http://www.w3.org/2000/svg" xmlns:xlink="http://www.w3.org/1999/xlink" xml:space="preserve" xmlns:serif="http://www.serif.com/" style="fill-rule:evenodd;clip-rule:evenodd;stroke-linejoin:round;stroke-miterlimit:2;">
    <path d="M276.761,503.8C332.256,496.683 346.312,481.776 346.312,481.776L341.55,438.324C246.907,460.943 193.336,444.276 174.883,429.99C156.431,415.705 155.24,377.014 155.24,377.014C187.383,393.681 324.883,383.562 356.431,381.776C387.979,379.99 449.288,353.8 471.907,326.419C480.731,315.738 485.207,289.567 487.383,261.621L487.383,157.759C487.383,74.758 419.997,7.371 336.995,7.371L174.676,7.371C91.675,7.371 24.288,74.758 24.288,157.759L24.288,353.412C24.288,436.413 91.675,503.8 174.676,503.8L276.761,503.8ZM389.839,283.715C389.839,287.571 388.186,289.72 384.881,290.16C381.576,290.601 373.423,290.821 360.423,290.821C346.983,290.821 338.61,290.491 335.305,289.83C332,289.169 330.347,286.47 330.347,281.732C330.347,276.664 330.512,269.09 330.843,259.01C331.173,248.929 331.339,241.355 331.339,236.287C331.339,217.008 331.118,203.292 330.678,195.139C330.017,182.029 323.792,175.474 312.004,175.474C306.826,175.474 301.676,177.65 296.553,182.001C291.43,186.353 288.593,191.173 288.042,196.461C287.601,201.088 287.381,214.639 287.381,237.114C287.381,242.292 287.546,250.141 287.877,260.662C288.207,271.184 288.373,279.088 288.373,284.376C288.373,288.012 286.775,289.83 283.58,289.83L233.508,289.83C230.424,289.83 228.881,287.571 228.881,283.054C228.881,277.876 229.046,270.109 229.377,259.753C229.707,249.398 229.873,241.576 229.873,236.287C229.873,232.211 229.763,226.042 229.542,217.779C229.322,209.516 229.212,203.292 229.212,199.105C229.212,183.351 223.207,175.474 211.199,175.474C206.352,175.474 201.118,177.347 195.5,181.093C189.33,185.169 186.246,189.465 186.246,193.982C186.246,204.008 186.301,218.991 186.411,238.931C186.521,258.872 186.576,273.8 186.576,283.715C186.576,286.47 186.246,288.177 185.585,288.838C184.924,289.499 183.216,289.94 180.462,290.16C175.504,290.601 167.682,290.821 156.996,290.821C150.055,290.821 142.178,290.491 133.364,289.83C130.72,289.609 129.15,289.224 128.655,288.673C128.159,288.122 127.911,286.47 127.911,283.715C127.911,274.902 127.966,261.709 128.076,244.137C128.186,226.565 128.241,213.372 128.241,204.559C128.241,186.491 126.919,166.165 124.275,143.58C124.055,142.258 123.945,141.266 123.945,140.605C123.945,138.732 124.716,137.465 126.258,136.804C128.682,135.813 133.254,134.987 139.974,134.326C148.237,133.554 153.14,133.059 154.682,132.838C155.784,132.618 160.135,131.461 167.737,129.368C173.135,127.826 177.487,127.054 180.792,127.054C182.885,127.054 183.987,130.883 184.097,138.54C184.207,146.196 184.648,150.025 185.419,150.025C186.521,149.584 187.788,148.813 189.22,147.711C199.135,139.999 206.957,134.711 212.686,131.847C221.169,127.771 230.368,125.732 240.284,125.732C250.419,125.732 259.453,127.991 267.385,132.508C276.309,137.576 282.093,144.682 284.737,153.826C290.576,145.893 298.618,139.228 308.864,133.83C319.11,128.432 329.08,125.732 338.775,125.732C353.317,125.732 365.161,129.093 374.305,135.813C384.661,143.415 389.839,154.266 389.839,168.368C389.839,174.207 389.673,182.993 389.343,194.726C389.012,206.459 388.847,215.245 388.847,221.084C388.847,228.025 389.012,238.463 389.343,252.4C389.673,266.336 389.839,276.775 389.839,283.715Z" style="fill:white;"/>
</svg>
